<?xml version="1.0" encoding="UTF-8"?><svg xmlns="http://www.w3.org/2000/svg" viewBox="0 0 17 20.89"><defs><style>.d,.e{fill:#dedede;}.e{stroke-width:1.5px;}.e,.f{stroke:#dedede;stroke-linecap:round;stroke-linejoin:round;}.f{fill:none;}</style></defs><g id="a"/><g id="b"><g id="c"><g><rect class="f" x=".5" y=".5" width="16" height="19.89" rx="1.08" ry="1.08"/><g><g><path class="d" d="M5.2,5.3v-1.32c0-.1,.03-.18,.09-.23,.06-.05,.13-.08,.21-.08s.15,.03,.21,.08,.09,.13,.09,.23v2.08c0,.05,0,.09-.03,.13-.02,.04-.04,.07-.08,.1s-.06,.05-.1,.06c-.04,.02-.08,.02-.11,.03-.08,0-.16,0-.24-.04-.08-.03-.14-.08-.19-.15l-.8-1.43v1.58h-.59v-2.34c0-.05,0-.1,.03-.14s.05-.07,.08-.1,.07-.05,.11-.06c.04-.02,.08-.03,.11-.03,.08,0,.16,0,.24,.04,.08,.03,.14,.09,.18,.16l.8,1.44Z"/><path class="d" d="M6.8,4.71h.89s.09,0,.12,.03,.06,.04,.08,.07,.04,.06,.05,.09c0,.03,.01,.07,.01,.1s0,.07-.01,.1c0,.03-.02,.06-.05,.09s-.05,.05-.08,.07c-.03,.02-.07,.02-.12,.02h-.89v.39s0,.07,.02,.08c.01,.01,.04,.02,.08,.02h.86s.09,0,.12,.02c.03,.02,.06,.04,.08,.07,.02,.03,.04,.06,.05,.09,0,.03,.01,.07,.01,.1s0,.07-.01,.1c0,.03-.03,.07-.05,.1-.02,.03-.05,.05-.08,.07-.03,.02-.07,.03-.12,.03h-1.11c-.1,0-.18,0-.24-.03-.07-.02-.12-.05-.16-.09-.04-.04-.07-.1-.08-.16-.02-.07-.02-.15-.02-.24v-1.62c0-.09,0-.18,.02-.24,.02-.07,.04-.12,.08-.16,.04-.04,.09-.07,.16-.09s.15-.03,.24-.03h1.08s.09,0,.12,.03c.03,.02,.06,.04,.08,.07,.02,.03,.04,.06,.05,.1,0,.04,.01,.07,.01,.1s0,.07-.01,.1c0,.03-.02,.07-.05,.09s-.05,.05-.08,.07-.07,.02-.12,.02h-.83s-.06,0-.08,.02c-.01,.01-.02,.04-.02,.08v.35Z"/><path class="d" d="M10.38,5.44l.33-1.53c0-.05,.03-.09,.05-.13,.03-.03,.06-.06,.09-.08s.07-.03,.11-.04c.04,0,.08,0,.12,0,.04,0,.08,.02,.11,.04,.03,.02,.06,.05,.09,.08s.04,.07,.05,.11,0,.09,0,.14l-.52,2.3h-.72l-.38-1.65-.38,1.65h-.67l-.54-2.3c-.01-.05-.01-.1,0-.14s.03-.08,.05-.11c.02-.03,.05-.06,.09-.08,.04-.02,.07-.03,.11-.04,.04,0,.08,0,.12,0,.04,0,.08,.02,.12,.04,.04,.02,.07,.04,.09,.08,.02,.03,.04,.07,.05,.13l.3,1.45,.3-1.36s.03-.09,.06-.12c.03-.03,.06-.06,.09-.08s.06-.03,.1-.04c.03,0,.07-.01,.1-.01s.06,0,.1,.01c.03,0,.07,.02,.1,.04,.03,.02,.06,.04,.09,.08,.03,.03,.05,.07,.06,.12l.32,1.44Z"/><path class="d" d="M12.16,4.45c0,.06,.03,.11,.1,.16,.07,.04,.17,.09,.3,.13l.16,.06c.1,.03,.18,.08,.26,.13,.08,.05,.14,.12,.2,.19,.05,.07,.09,.15,.12,.24s.04,.19,.03,.29c-.02,.24-.11,.42-.28,.55-.17,.13-.41,.19-.71,.19-.15,0-.29-.02-.42-.05-.14-.03-.25-.08-.34-.15-.03-.03-.06-.06-.08-.09-.02-.03-.04-.07-.05-.11,0-.04-.01-.08,0-.12,0-.04,.02-.08,.05-.12,.02-.04,.06-.07,.1-.09s.09-.03,.13-.03c.06,0,.1,0,.14,.03l.1,.06s.08,.04,.14,.06c.06,.02,.14,.02,.25,.02,.09,0,.16-.02,.21-.05,.05-.03,.08-.09,.08-.16,0-.03-.01-.06-.04-.09-.02-.03-.06-.05-.1-.08-.04-.02-.1-.05-.16-.07s-.12-.05-.19-.07c-.03,0-.05-.02-.08-.03-.03-.01-.05-.02-.07-.03-.12-.05-.22-.12-.3-.2-.08-.08-.13-.16-.17-.25-.04-.09-.06-.19-.06-.28,0-.1,.01-.19,.04-.27,.06-.18,.16-.32,.32-.41,.15-.1,.34-.15,.57-.15,.08,0,.16,0,.22,.01,.06,0,.12,.02,.17,.03,.05,.01,.09,.03,.13,.04s.07,.03,.1,.05c.08,.04,.14,.1,.18,.18,.04,.07,.05,.15,.03,.23-.02,.07-.06,.12-.11,.15-.05,.03-.11,.04-.17,.04-.02,0-.05,0-.08-.01-.03,0-.05-.02-.07-.03-.04-.03-.09-.05-.15-.07-.06-.02-.14-.03-.24-.03-.08,0-.14,.02-.18,.05-.04,.03-.07,.08-.07,.15Z"/></g><g><rect class="f" x="9.95" y="8.78" width="4.32" height="0"/><rect class="f" x="9.95" y="10.53" width="4.32" height="0"/><rect class="f" x="9.95" y="12.28" width="4.32" height="0"/><rect class="e" x="3.49" y="8.34" width="3.96" height="4.01"/><line class="f" x1="2.73" y1="15.07" x2="14.2" y2="15.07"/><line class="f" x1="2.73" y1="17.39" x2="14.2" y2="17.39"/></g></g></g></g></g></svg>